<svg xmlns="http://www.w3.org/2000/svg" version="1.0" viewBox="324.13 383.14 431.37 312.53"><path fill="#05386b" d="M449.5 385.5c-19.8 3.5-43 9.8-61 16.6-5.3 2-8.5 2.4-26 2.9-19.8.5-20 .5-25.3 3.5-5.9 3.2-10.3 8.7-12.1 15-.9 3-1.1 35.7-.9 125.5l.3 121.5 2.3 4.4c2.8 5.2 6.3 8.6 11.7 11.3 4.6 2.4 6.4 2.5 96.5 6.4 97.2 4.1 104.9 4.1 207.5 0 67.3-2.8 91.3-4.1 95.3-5.2 6.1-1.7 12.3-6.8 15.5-12.8l2.2-4.1v-247l-2.1-4c-3-5.5-6.4-8.9-11.5-11.7-4.1-2.1-6-2.3-24.4-2.8l-20-.6-14.6-5.1c-17.3-6.1-43-12.6-58.9-14.9-15.6-2.2-33.7-1.5-47.5 2-11.4 2.9-26 9.7-32.2 15.1l-4.2 3.6-5.3-4.1c-20.5-15.7-52-21.5-85.3-15.5zm47.3 13.5c11 2.2 25.7 9 32 14.7l4.3 3.8-.3 111.2-.3 111.1-6-4.5c-7.2-5.5-19.6-11.6-28.5-14-10-2.7-39.3-2.5-56 .5-16.4 2.9-37.6 8.2-55.3 13.7-7.8 2.5-14.5 4.5-14.9 4.5-.5 0-.8-48.8-.8-108.5s.1-108.5.3-108.5c.2 0 5.3-1.9 11.3-4.1 23.5-8.9 54-17.5 72.4-20.4 13-2 30.8-1.8 41.8.5zm127.7-.5c12.8 1.9 30.5 6.3 47 11.5 15.1 4.7 34.4 11.8 36.3 13.3 1.7 1.3 1.8 216.7.1 216.7-.6 0-7.5-2-15.3-4.5-16.3-5.1-42.6-11.7-57.1-14.1-6.9-1.2-16-1.8-29-1.8-17.3-.1-19.7.1-26.5 2.2-9.6 3.1-21.3 9-27.8 14.1L547 640V417.4l2.8-2.6c3.8-3.7 13.5-9.4 20.1-11.9 15.4-5.8 34.9-7.3 54.6-4.4zM358 538.3c0 109.6.1 119.4 1.7 121.6l1.6 2.4 20.1-.6c11.1-.4 35.9-1.2 55.1-1.8 50.3-1.6 73.2-.3 97.1 5.7 5.9 1.5 6.9 1.5 12.8 0 24.1-6 52.7-7.6 104.6-5.7 73.4 2.7 66.8 2.6 69 .6 2-1.8 2-3 2-121.7V419h6.6c6.2 0 6.8.2 10 3.4l3.4 3.4v120.1c0 132 .4 124.3-5.9 127.6-2.4 1.2-21.3 2.2-99.6 5.4l-96.6 4-96.6-4c-105.3-4.3-100.9-3.9-104-10-1-1.9-1.3-29.1-1.3-122.8V425.8l3.4-3.4c3.2-3.2 3.8-3.4 10-3.4h6.6v119.3zm133 95.8c7.2 1.1 18.6 6.1 25.5 11 2.5 1.8 4.4 3.3 4.2 3.5-.1.1-2.7-.2-5.7-.7-14.7-2.4-36.3-3-75.9-1.9-22.2.6-40.5.9-40.8.7-.6-.7 35.7-9.4 46.7-11.2 19.6-3.3 31.7-3.6 46-1.4zm128-.6c4.7.4 12.3 1.3 17 2.1 10.4 1.8 46.3 10.5 45.7 11.1-.3.2-18.9-.1-41.4-.7-40-1.1-60.3-.6-75.3 1.9-3 .5-5.6.8-5.8.6-.7-.7 9.3-6.9 16.2-10 8.7-4.1 22.1-6.6 31.1-5.9 2.2.2 7.8.6 12.5.9z"/><path fill="#1E5D97" d="M437.1 449.5c-14.6 3.3-27.2 12.2-32.5 23-5.2 10.8-5.1 27 .4 38.1 6.1 12.4 17.4 19.3 41.1 24.9 19.4 4.7 24 6.1 28 8.8 4.9 3.3 7.2 8 7.2 14.6 0 12.8-8.1 19.1-24.7 19.1-15.4-.1-24.4-3.8-35.5-14.7-4-4-7.7-7.3-8.1-7.3-1.6 0-17.1 20.1-16.4 21.3 6.3 10.4 20 19.4 36.5 23.9 7.1 1.9 10.8 2.2 23.9 2.2 13.9-.1 16.3-.3 23.2-2.6 14-4.6 21.7-11 27-22.5 4.1-8.8 5.5-18.4 4-28.4-1.5-10.7-5-17.6-12.2-24.2-7.7-7.2-16.2-10.6-37.5-15.2-23.8-5-29.5-8.1-31.5-17-2.5-11.1 5.9-19.1 21.3-20.2 12.7-.9 25.3 2.8 34.3 10.2 2.3 1.9 4.5 3.5 4.8 3.5.3 0 4-4.6 8.1-10.2l7.5-10.2-2.3-2.4c-4-4.5-13.9-10.2-22.1-12.8-6.9-2.3-10.3-2.7-23.1-3-10.7-.3-16.8 0-21.4 1.1zM606.5 449.6c-26.8 5.9-40.7 26.3-35.4 51.6 2.6 12.1 10.2 21.5 22.3 27.3 4.5 2.1 13.8 5 24.2 7.5 17.9 4.4 24.4 6.7 28.3 10.3 8.2 7.6 6.3 22.6-3.7 28.4-6.6 3.9-20.9 4.5-31 1.4-8.7-2.6-18.3-9-23.1-15.2-2-2.6-4.3-4.8-5.1-4.8-1.6 0-16.3 17.7-16.8 20.4-.6 2.9 12.6 14.8 20.8 18.8 12.5 6.1 21.2 8 38.5 8.1 21.5.1 32.2-3.3 43-13.5 8.8-8.3 12.4-18 12.5-33.1 0-18.2-7.1-30.4-22.5-38-7-3.5-12.8-5.2-30-8.8-8.2-1.8-16.8-4.1-19.2-5.2-7.8-3.6-11.4-10.3-9.9-18.2 1.5-8 9.1-12.6 21.9-13.3 13.4-.8 24.5 2.6 33.6 10.1 2.4 2 4.6 3.6 5 3.6 1 0 15.1-19.5 15.1-20.8 0-1.6-9.7-8.9-15.3-11.6-9.4-4.4-16.4-5.8-31.7-6.2-10.6-.3-16.4.1-21.5 1.2z"/></svg>