<svg xmlns="http://www.w3.org/2000/svg" version="1.0" preserveAspectRatio="xMidYMid meet" viewBox="272 272.16 535.8 535.65">

<g transform="translate(0.000000,1080.000000) scale(0.100000,-0.100000)">
<path fill="#05386b" d="M5080 8065 c-894 -107 -1684 -666 -2080 -1470 -194 -395 -280 -761 -280 -1195 0 -1137 701 -2135 1773 -2524 323 -117 609 -162 977 -153 318 8 556 51 838 153 382 139 699 340 988 629 408 407 670 925 759 1505 25 162 31 514 11 683 -39 337 -115 595 -266 902 -298 604 -826 1081 -1461 1318 -196 73 -468 138 -663 156 -144 14 -464 12 -596 -4z m-129 -1110 c152 -26 321 -97 406 -170 l39 -33 57 44 c145 109 319 164 547 171 228 8 482 -40 831 -158 l176 -59 170 0 c202 0 245 -11 309 -77 79 -81 74 10 74 -1343 0 -891 -3 -1216 -12 -1241 -27 -80 -98 -148 -177 -169 -20 -5 -428 -25 -906 -44 -479 -20 -915 -37 -970 -40 -99 -5 -233 0 -945 29 -935 39 -1094 47 -1135 60 -58 17 -111 59 -143 114 l-27 46 -3 1230 c-3 1382 -8 1279 73 1360 64 64 108 75 306 75 l167 0 179 59 c233 77 386 116 613 154 63 11 294 6 371 -8z"/>
<path fill="#05386b" d="M4562 6815 c-188 -29 -620 -152 -791 -226 l-51 -21 0 -1085 c0 -982 1 -1085 16 -1079 136 52 491 146 671 176 399 69 648 30 861 -133 l62 -48 0 1115 0 1116 -51 39 c-68 54 -177 107 -274 132 -104 27 -313 34 -443 14z m203 -512 c39 -8 97 -28 130 -43 63 -28 165 -103 165 -121 0 -21 -144 -209 -160 -209 -10 0 -25 10 -36 21 -26 30 -88 68 -138 85 -106 38 -267 36 -344 -4 -113 -58 -110 -206 5 -270 24 -13 117 -39 220 -61 309 -67 402 -122 476 -280 24 -51 31 -80 35 -155 13 -264 -117 -434 -376 -492 -104 -23 -326 -15 -432 16 -114 33 -206 85 -282 161 -38 37 -68 73 -68 81 0 17 157 208 171 208 5 0 40 -30 77 -68 109 -110 242 -160 392 -150 136 10 209 75 210 187 0 120 -57 162 -291 217 -241 56 -321 90 -403 171 -143 141 -153 406 -20 562 66 78 200 142 339 160 87 12 237 4 330 -16z"/>
<path fill="#05386b" d="M5843 6809 c-143 -30 -239 -72 -330 -146 l-43 -34 0 -1116 0 -1115 48 40 c64 54 183 116 267 141 194 58 467 42 843 -49 130 -32 368 -101 440 -127 9 -4 12 216 12 1080 l0 1086 -82 32 c-139 53 -376 128 -521 164 -268 66 -464 80 -634 44z m635 -510 c91 -23 197 -78 245 -127 l36 -37 -71 -98 c-39 -55 -77 -101 -84 -104 -7 -3 -33 11 -57 31 -96 79 -244 116 -375 96 -74 -12 -95 -22 -135 -58 -37 -35 -51 -90 -37 -144 23 -82 82 -113 305 -158 214 -43 306 -81 390 -161 163 -154 162 -473 -2 -637 -96 -96 -235 -142 -429 -142 -153 0 -289 28 -394 80 -62 31 -154 107 -188 154 l-33 45 83 101 c45 55 88 100 95 100 8 0 41 -29 75 -65 102 -110 241 -163 395 -152 154 11 237 110 203 238 -25 90 -74 116 -356 183 -234 56 -342 123 -406 254 -32 64 -33 71 -33 187 0 116 1 123 33 187 53 108 162 193 293 228 121 33 316 32 447 -1z"/>
<path fill="#05386b" d="M3432 6590 c-18 -11 -37 -32 -42 -46 -6 -16 -10 -467 -10 -1217 0 -1149 1 -1193 19 -1223 10 -17 32 -36 47 -42 18 -7 390 -26 991 -50 l962 -39 963 40 c1043 42 1013 39 1043 98 23 43 22 2396 0 2439 -21 40 -63 60 -129 60 l-56 0 -2 -1201 -3 -1202 -25 -18 c-24 -17 -39 -17 -345 -3 -176 8 -480 15 -675 17 -323 1 -368 -1 -495 -21 -77 -12 -170 -30 -206 -40 -66 -19 -67 -19 -155 4 -197 49 -307 59 -634 57 -304 -2 -826 -18 -971 -29 -71 -5 -78 -4 -105 19 l-29 25 -3 1196 -2 1196 -53 0 c-34 0 -63 -7 -85 -20z"/>
<path fill="#05386b" d="M4525 4454 c-148 -20 -543 -109 -532 -120 1 -1 189 2 416 8 400 11 508 8 751 -19 l45 -5 -54 37 c-70 49 -151 84 -231 101 -81 17 -263 16 -395 -2z"/>
<path fill="#05386b" d="M5872 4455 c-69 -15 -188 -69 -242 -110 l-35 -27 40 5 c195 25 369 29 760 19 225 -6 411 -9 412 -8 5 4 -187 54 -310 81 -246 53 -492 69 -625 40z"/>
</g>
</svg>